<mxfile host="app.diagrams.net" modified="2024-05-23T02:38:32.225Z" agent="Mozilla/5.0 (Macintosh; Intel Mac OS X 10_15_7) AppleWebKit/537.36 (KHTML, like Gecko) Chrome/124.0.0.0 Safari/537.36 Edg/124.0.0.0" version="24.4.6" etag="8q1oWt85P6de9X8meHpF" type="github">
  <diagram name="第 1 页" id="lfaDCPkqAtvDCcxMDdHA">
    <mxGraphModel>
      <root>
        <mxCell id="0" />
        <mxCell id="1" parent="0" />
      </root>
    </mxGraphModel>
  </diagram>
</mxfile>
